# xmcd
#
# Track frame offsets: 
#        150
#        12200
#        21884
#        33200
#        44975
#        57388
#        68758
#        79425
#        92314
#        105933
#        118291
#        130756
#        143305
#        155255
#        167609
#        178700
#        191588
#        201621
#        215326
#        227994
#        241055
#        254023
#        266657
#        281607
#        293727
#
# Disc length: 4070 seconds
#
# Revision: 0
# Processed by: cddbd v1.5.2PL0 Copyright (c) Steve Scherf et al.
# Submitted via: ExactAudioCopy v0.99pb3
#
DISCID=680fe419
DTITLE=Various Artist - The Complete Motown Singles Volume 8 [CD38)
DYEAR=1968
DGENRE=R&B/Soul
TTITLE0=Rita Wright - I Can't Give Back The Love I Feel For You
TTITLE1=Rita Wright - Something On My Mind
TTITLE2=Shorty Long - Night Fo' Last
TTITLE3=Shorty Long - Night Fo' Last (Instrumental)
TTITLE4=Four Tops - Walk Away Renee
TTITLE5=Four Tops - Your Love Is Wonderful
TTITLE6=Gladys Knight and The Pips - The End Of Our Road
TTITLE7=Gladys Knight and The Pips - Don't Let Her Take Your Love From M
TTITLE7=e
TTITLE8=Chuck Jackson - (You Can't Let The Boy Overpower) The Man In Y
TTITLE8=ou
TTITLE9=Chuck Jackson - Girls, Girls, Girls
TTITLE10=Debbie Dean - Why Am I Lovin' You
TTITLE11=Debbie Dean - Stay My Love
TTITLE12=Billy Eckstine - Thank You Love
TTITLE13=Billy Eckstine - Is Anyone Here Goin' My Way
TTITLE14=Smokey Robinson and The Miracles - If You Can Want
TTITLE15=Smokey Robinson and The Miracles - When The Words From Your Hea
TTITLE15=rt Get Caught Up In Your Throat
TTITLE16=Chris Clark - Whisper You Love Me Boy
TTITLE17=Jimmy Ruffin - I'll Say Forever My Love
TTITLE18=Jimmy Ruffin - Everybody Needs Love
TTITLE19=Bobby Taylor and The Vancouvers - Does Your Mama Know About Me 
TTITLE19=(Promo Version)
TTITLE20=Bobby Taylor and The Vancouvers - Fading Away
TTITLE21=Bobby Taylor and The Vancouvers - Does Your Mama Know About Me 
TTITLE21=(Commercial Version)
TTITLE22=Diana Ross and The Supremes - Forever Came Today
TTITLE23=The Isley Brothers - Take Me In Your Arms (Rock Me A Little W
TTITLE23=hile)
TTITLE24=The Isley Brothers - Why When Love Is Gone
EXTD=
EXTT0=
EXTT1=
EXTT2=
EXTT3=
EXTT4=
EXTT5=
EXTT6=
EXTT7=
EXTT8=
EXTT9=
EXTT10=
EXTT11=
EXTT12=
EXTT13=
EXTT14=
EXTT15=
EXTT16=
EXTT17=
EXTT18=
EXTT19=
EXTT20=
EXTT21=
EXTT22=
EXTT23=
EXTT24=
PLAYORDER=
